<?xml version="1.0" encoding="utf-8"?>

<!DOCTYPE svg PUBLIC "-//W3C//DTD SVG 1.1//EN" "http://www.w3.org/Graphics/SVG/1.1/DTD/svg11.dtd">
<svg version="1.1" id="Layer_1" xmlns="http://www.w3.org/2000/svg" xmlns:xlink="http://www.w3.org/1999/xlink" x="0px" y="0px"
	 viewBox="0 0 1047.145 1667.766" enable-background="new 0 0 1047.145 1667.766" xml:space="preserve">
<g>
	<path fill="none" d="M468.117,710.856c11.24,3.449,27.1,6.387,35.288,7.121c27.761,2.415,48.405,1.335,78.887-7.891
		c6.774-2.081,16.703-6.099,22.133-8.701c147.703-73.475,139.962-262.134,31.022-333.944
		c-26.608-18.916-141.942-71.822-239.191,10.957c-23.805,20.212-43.026,48.8-53.086,75.367
		c-14.561,38.214-16.123,72.23-9.608,110.693C346.703,632.116,392.575,686.25,468.117,710.856z"/>
	<path fill="none" d="M471.333,916.005c0,6.088,0,199.352,0,213.657c-4.739,0-309.283,0-316.801,0c0,22.494,0,80.388,0,102.89
		c7.648,0,312.102,0,316.801,0c0,13.001,0,288.835,0,302.291c22.494,0,80.388,0,102.89,0c0-13.632,0-289.506,0-302.29
		c13.932,0,301.928,0,315.994,0c0-22.494,0-80.388,0-102.89c-7.634,0-311.3,0-315.994,0c0-0.025-0.008-224.782,0.014-224.793
		c48.993,0,51.625-0.897,75.491-8.949c164.932-55.276,282.579-221.41,263.6-413.902c-3.109-35.049-18.275-88.789-32.679-118.196
		c-16.862-36.286-29.003-55.175-46.949-79.724C677.699,85.328,388.48,88.814,235.865,256.375
		C56.325,452.528,111.858,776.559,375.298,887.494C404.668,900.73,466.627,914.305,471.333,916.005z M250.902,417.773
		c49.716-130.154,191.136-211.69,340.054-174.768c289.489,68.379,299.003,462.971,26.778,559.671
		c-9.167,3.424-43.522,13.785-80.32,15.171c-52.921,2.405-110.257-10.022-159.811-38.581
		C254.331,709.785,197.164,559.58,250.902,417.773z"/>
	<path fill="#9913E6" d="M521.824,818.155c172.369,1.543,307.468-147.966,292.567-318.333
		c-7.911-91.182-57.565-171.033-123.99-214.776c-28.657-19.881-88.329-45.553-149.366-49.988
		c-193.248-13.671-329.514,152.798-308.109,326.115c4.44,33.627,12.869,66.392,29.945,99.21
		c23.364,46.451,63.693,90.111,114.735,118.895C418.315,802.716,466.341,816.924,521.824,818.155z M249.746,578.746
		c0.091-0.017,0.997-0.185,0.997-0.185L249.746,578.746c-10.235-59.084-3.996-107.853,14.204-155.884l0.945,0.369l0,0l-0.945-0.369
		c18.215-47.674,52.396-93.022,96.239-124.203l0.591,0.824l0,0l-0.591-0.824c80.065-56.783,182.043-68.228,287.182-21.35
		c148.982,64.714,208.312,277.399,94.741,419.811l-0.797-0.627l0,0l0.797,0.627c-25.403,31.672-56.895,58.942-93.195,77.131
		c-21.567,10.643-34.034,14.588-34.034,14.588l-0.335-0.957l0,0l0.335,0.957C459.087,844.21,279.012,745.588,249.746,578.746z"/>
	<path fill="#4914A0" d="M614.881,788.834l-0.335-0.957l0,0L614.881,788.834c48.879-17.547,90.882-46.38,127.229-91.719
		l-0.797-0.627l0,0l0.797,0.627c94.357-118.32,71.868-293.38-38.705-384.936c-73.889-61.049-221.231-100.281-343.218-13.525
		l0.591,0.824l0,0l-0.591-0.824c-44.282,31.493-78.311,77.153-96.239,124.203l0.945,0.369l0,0l-0.945-0.369
		c-19.934,52.547-23.532,102.057-14.204,155.884c0.091-0.017,0.997-0.185,0.997-0.185l-0.997,0.185
		C279.372,747.652,461.241,843.7,614.881,788.834z M263.515,576.19c-9.746-56.294-3.793-102.672,13.481-148.24l0.945,0.369l0,0
		l-0.945-0.369c17.009-44.712,49.54-88.22,91.349-117.91l0.591,0.824l0,0l-0.591-0.824c81.129-57.611,182.44-60.946,269.15-21.805
		c8.346,3.722,5.083,2.192,16.624,7.767l-0.463,0.902l0,0l0.463-0.902c47.5,25.933,80.325,61.202,104.294,107.715l-0.905,0.458l0,0
		l0.905-0.458c72.673,141.296,5.294,316.823-148.161,371.898l-0.335-0.957l0,0l0.335,0.957
		c-44.968,16.035-95.647,19.406-148.955,6.927l0.239-0.985l0,0l-0.239,0.985c-46.033-11.008-91.256-35.07-129.481-73.639
		l0.728-0.706l0,0l-0.728,0.706C298.932,675.703,272.34,626.963,263.515,576.19c0.091-0.017,0.997-0.185,0.997-0.185L263.515,576.19
		z"/>
	<path fill="#1D3DDD" d="M263.515,576.19c8.91,51.16,35.541,99.574,68.297,132.719l0.728-0.706l0,0l-0.728,0.706
		c38.144,38.511,83.35,62.608,129.481,73.639l0.239-0.985l0,0l-0.239,0.985c52.623,12.318,103.202,9.337,148.955-6.927l-0.335-0.957
		l0,0l0.335,0.957C763.437,720.709,830.99,544.84,758.409,403.723l-0.905,0.458l0,0l0.905-0.458
		c-24.723-48.069-58.344-82.616-104.294-107.715l-0.463,0.902l0,0l0.463-0.902c-108.872-52.564-209.108-40.517-285.774,14.038
		l0.591,0.824l0,0l-0.591-0.824c-42.225,30.047-74.464,73.523-91.349,117.91l0.945,0.369l0,0l-0.945-0.369
		C258.336,477.11,254.454,523.878,263.515,576.19c0.091-0.017,0.997-0.185,0.997-0.185L263.515,576.19z M277.283,573.635
		c-25.933-149.876,72.011-277.793,210.693-295.63c10.38-1.273,20.257-1.696,22.296-1.696l0.032,1.014l0,0l-0.032-1.014
		c50.134-1.434,93.33,10.868,137.452,32.151l-0.463,0.902l0,0l0.463-0.902c41.6,22.74,73.676,53.994,98.191,101.577l-0.905,0.458
		l0,0l0.905-0.458c14.409,27.976,23.822,61.156,26.623,93.457c1.677,19.207,0.83,38.528-0.049,45.207l-1.01-0.092
		c0,0,0.976,0.089,1.01,0.092c-10.33,100.795-76.711,181.404-166.874,213.697l-0.335-0.957l0,0l0.335,0.957
		C524.422,791.362,421.793,776,346.19,703.529c-2.755-2.782-4.33-4.371-4.33-4.372l0.728-0.706l0,0l-0.728,0.706
		C310.493,667.39,285.656,621.601,277.283,573.635c0.091-0.017,0.997-0.185,0.997-0.185L277.283,573.635z"/>
	<path fill="#019A4A" d="M277.283,573.635c8.39,48.061,33.287,93.831,64.583,125.525l0.728-0.706l0,0l-0.728,0.706
		c73.106,73.803,177.792,93.903,263.755,63.241l-0.335-0.957l0,0l0.335,0.957c87.644-31.391,156.254-110.045,166.874-213.697
		l-1.01-0.092c0,0,0.976,0.089,1.01,0.092c4.765-36.722-2.878-92.483-26.574-138.664l-0.905,0.458l0,0l0.905-0.458
		c-22.73-44.132-53.705-77.237-98.191-101.577l-0.463,0.902l0,0l0.463-0.902c-45.089-21.75-87.594-33.493-137.452-32.151
		l0.032,1.014l0,0l-0.032-1.014C366.74,280.418,249.145,411.002,277.283,573.635c0.091-0.017,0.997-0.185,0.997-0.185
		L277.283,573.635z M291.052,571.079c-7.191-41.587-5.487-80.208,7.804-121.222c0.059-0.172,4.052-11.728,4.234-11.728l0.945,0.368
		l0,0l-0.945-0.368c15.1-39.808,44.121-78.672,81.572-105.324l0.591,0.824l0,0l-0.591-0.824
		c39.441-27.975,83.425-41.368,126.048-42.496l0.032,1.014l0,0l-0.032-1.014c47.292-1.345,87.996,10.103,130.625,30.611
		l-0.182,0.354l0.182-0.354c124.454,68.163,156.103,239.577,68.717,349.023c-0.619,0.774-0.948,1.186-0.949,1.186l-0.797-0.627l0,0
		l0.797,0.627c-29.711,37.088-65.026,62.638-108.115,78.056l-0.335-0.957l0,0l0.335,0.957
		c-40.432,14.429-85.673,17.255-133.089,6.143l0.239-0.985l0,0l-0.239,0.985c-41.949-9.957-82.091-31.665-115.979-65.918
		l0.728-0.706l0,0l-0.728,0.706C322.903,660.08,298.97,616.834,291.052,571.079c0.091-0.017,0.997-0.185,0.997-0.185
		L291.052,571.079z"/>
	<path fill="#FDE000" d="M291.052,571.079c7.845,45.414,31.916,89.22,60.868,118.331l0.728-0.706l0,0l-0.728,0.706
		c34.056,34.4,75.003,56.192,115.979,65.918l0.239-0.985l0,0l-0.239,0.985c47.826,11.229,93.262,8.071,133.089-6.143l-0.335-0.957
		l0,0l0.335,0.957c43.096-15.407,78.401-40.941,108.115-78.056l-0.797-0.627l0,0l0.797,0.627
		c89.034-111.428,56.282-282.265-67.768-350.209l-0.182,0.354l0.182-0.354c-42.192-20.298-82.8-31.968-130.625-30.611l0.032,1.014
		l0,0l-0.032-1.014c-44.092,1.254-87.722,15.222-126.048,42.496l0.591,0.824l0,0l-0.591-0.824
		c-36.663,26.005-66.11,64.692-81.572,105.324l0.945,0.368l0,0l-0.945-0.368C286.593,481.55,282.842,523.731,291.052,571.079
		c0.091-0.017,0.997-0.185,0.997-0.185L291.052,571.079z M304.82,568.523c-8.233-47.507-3.241-87.018,11.316-125.305l0.945,0.369
		l0,0l-0.945-0.369c30.154-79.497,107-136.605,195.013-138.912l0.032,1.014l0,0l-0.032-1.014
		c45.508-1.283,83.595,9.76,123.794,29.075l-0.463,0.902l0,0l0.463-0.902c36.543,20.061,64.868,48.184,85.986,89.304l-0.905,0.458
		l0,0l0.905-0.458c38.52,74.499,32.548,170.531-22.826,239.781l-0.797-0.627l0,0l0.797,0.627
		C572.362,819.498,335.243,744.266,304.82,568.523c0.091-0.017,0.997-0.185,0.997-0.185L304.82,568.523z"/>
	<path fill="#FF5A00" d="M304.82,568.523c29.9,174.749,266.93,251.626,393.279,93.947l-0.797-0.627l0,0l0.797,0.627
		c54.949-68.503,61.657-164.681,22.826-239.781l-0.905,0.458l0,0l0.905-0.458c-21.08-40.86-48.9-68.945-85.986-89.304l-0.463,0.902
		l0,0l0.463-0.902c-40.205-19.318-78.791-30.343-123.794-29.075l0.032,1.014l0,0l-0.032-1.014
		c-88.38,2.491-164.882,59.49-195.013,138.912l0.945,0.369l0,0l-0.945-0.369C300.165,485.22,297.301,525.007,304.82,568.523
		c0.091-0.017,0.997-0.185,0.997-0.185L304.82,568.523z M318.589,565.968c-15.378-88.799,21.166-167.154,82.387-210.398l0.591,0.824
		l0,0l-0.591-0.824c48.077-34.176,106.036-46.079,173.009-30.235c61.116,16.561,104.266,45.284,134.445,103.671l-0.905,0.458l0,0
		l0.905-0.458c36.556,70.724,30.037,160.797-21.335,224.798l-0.797-0.627l0,0l0.797,0.627
		c-52.924,66.133-131.487,93.376-212.597,74.303l0.239-0.985l0,0l-0.239,0.985c-33.965-7.987-68.526-25.594-98.886-54.572
		c-2.284-2.308-3.59-3.627-3.59-3.628l0.728-0.706l0,0l-0.728,0.706C346.873,644.605,325.392,606.083,318.589,565.968
		c0.091-0.017,0.997-0.185,0.997-0.185L318.589,565.968z"/>
	<path fill="#D10E1C" d="M318.589,565.968c6.597,38.987,27.549,77.903,53.435,103.946l0.728-0.706l0,0l-0.728,0.706
		c30.175,30.475,66.722,49.774,102.476,58.2l0.239-0.985l0,0l-0.239,0.985c81.765,19.227,160.075-8.677,212.597-74.303l-0.797-0.627
		l0,0l0.797,0.627c51.931-64.684,57.44-155.117,21.335-224.798l-0.905,0.458l0,0l0.905-0.458
		c-21.585-41.76-54.055-74.051-97.213-91.096c-80.973-33.21-153.884-22.4-210.241,17.66l0.591,0.824l0,0l-0.591-0.824
		c-33.142,23.499-56.035,54.752-71.321,91.484c-11.651,30.867-15.218,53.877-14.649,86.283c0.055,1.002,0.777,17.932,2.706,27.565
		C318.27,564.125,318.589,565.968,318.589,565.968c0.091-0.017,0.997-0.185,0.997-0.185L318.589,565.968z M597.186,348.472
		c148.404,54.323,166.849,273.516,7.241,352.914c-110.633,53.021-250.344-16.689-271.071-138.158
		C307.296,413.399,440.691,289.681,597.186,348.472z"/>
	<path fill="#4914A0" d="M875.822,752.846c7.789-12.397,8.764-14.217,8.764-14.217l0.872,0.517l0,0l-0.872-0.517
		c24.814-41.975,39.485-81.509,49.708-126.1c0.09,0.02,0.991,0.215,0.991,0.215l-0.991-0.215
		c7.503-33.497,11.187-74.325,8.574-114.008c-0.746-10.537-1.723-20.15-1.874-21.152c0.528-0.061,1.007-0.117,1.007-0.117
		l-1.007,0.117c-5.656-43.311-15.563-83.608-37.266-130.352l0.919-0.428l0,0l-0.919,0.428
		c-66.871-144.257-179.02-189.974-183.337-194.101l0.468-0.899l0,0l-0.468,0.899c-0.465-0.265-4.705-2.364-5.222-2.621
		c-32.515-16.199-65.726-28.172-102.611-35.891c-10.7-2.178-19.922-3.83-20.922-3.945l0.161-1.001l0,0l-0.161,1.001
		c-45.39-6.657-91.442-7.804-135.747-0.462l-0.155-1.002l0,0l0.155,1.002c-47.942,7.876-83.137,19.487-123.641,39.169
		c-0.065,0.031-5.196,2.601-5.196,2.66l-0.466-0.901l0,0l0.466,0.901c-44.741,23.586-82.177,53.31-107.91,81.33l-0.738-0.695l0,0
		l0.738,0.695c-29.713,32.581-54.702,67.005-75.616,112.417l-0.921-0.425l0,0l0.921,0.425
		c-20.145,43.648-32.678,89.648-37.167,130.515l-1.007-0.119c0,0,0.479,0.057,1.007,0.119c-5.053,45.82-3.726,88.643,6.052,135.292
		l-0.992,0.209c0,0,0.902-0.19,0.992-0.209c10.211,48.38,26.075,85.941,48.154,125.004c0.494,0.866,0.78,1.314,0.78,1.314
		l-0.874,0.514l0,0l0.874-0.514c48.923,81.019,114.982,138.504,201.999,175.159l-0.386,0.938l0,0l0.386-0.938
		c32.289,13.628,63.396,20.425,79.705,24.792c0.08,0.147,0.19,0.348,0.281,0.514c0,18.339,0,143.037,0,163.498
		c-1.801,0-311.169,0-316.806,0c0,7.308,0,151.605,0,158.905c15.286,0,301.37,0,316.802,0c0,11.333,0,290.854,0,302.285
		c7.297,0,151.598,0,158.906,0c0-25.908,0-292.883,0-302.291c1.856,0,310.38,0,315.995,0c0-7.297,0-151.598,0-158.906
		c-15.232,0-300.528,0-315.997,0c0-20.517,0-145.915,0-163.775c2.575-5.037,2.468-4.829,2.827-5.53
		c0.058-0.056,0.024-0.19,0.178-0.167c15.678-1.195,10.218-0.656,32.744-3.489c58.598-17.114,104.268-39.6,155.421-82.068
		c2.836-2.407,4.457-3.783,4.457-3.783l0.666,0.765l0,0l-0.666-0.765C797.857,842.842,841.118,806.777,875.822,752.846z
		 M368.285,900.84l0.386-0.938c-41.184-17.324-77.998-39.402-111.51-68.672l-0.664,0.766l0,0l0.664-0.766
		c-67.671-58.977-112.906-136.717-131.052-222.74l-0.992,0.209c0,0,0.902-0.19,0.992-0.209
		c-18.283-87.124-7.366-175.881,30.127-257.05l-0.921-0.425l0,0l0.921,0.425c54.497-118.38,159.802-204.267,301.784-227.605
		l-0.155-1.002l0,0l0.155,1.002c36.905-6.102,80.549-7.005,131.384,0.449l0.161-1.001l0,0l-0.161,1.001
		c0.545,0.063,5.002,0.875,5.582,0.979c85.518,15.273,159.37,53.174,223.091,118.725l0.738-0.695l0,0l-0.738,0.695
		c25.86,26.733,52.826,65.518,72.95,108.94l0.919-0.428l0,0l-0.919,0.428c20.767,44.683,30.522,83.774,36.052,126.06
		c0.528-0.061,1.007-0.117,1.007-0.117l-1.007,0.117c0.082,0.531,0.517,5.037,0.574,5.612c8.522,85.021-9.93,170.485-55.119,246.888
		l0.872,0.517l0,0l-0.872-0.517c-47.568,80.108-119.547,141.421-206.225,173.463c-34.005,12.316-39.221,12.57-76.62,13.577
		c-2.083,0.915-1.466,35.972-1.466,197.13c5.97,0,308.499,0,315.994,0c0,6.655,0,124.218,0,130.898c-7.496,0-310.022,0-315.99,0
		c0,2.903,0,299.302,0,302.291c-6.655,0-124.218,0-130.898,0c0-3.039,0-299.383,0-302.291c-5.858,0-309.247,0-316.801,0
		c0-6.655,0-124.218,0-130.898c7.554,0,310.944,0,316.802,0c0-197.019,0.06-187.735-0.141-188.835
		c-23.815-6.409-55.053-12.811-88.517-26.92L368.285,900.84L368.285,900.84z"/>
	<path fill="#1D3DDD" d="M887.581,760.451c0.174-0.276,9.051-14.353,9.051-14.68l0.872,0.517l0,0l-0.872-0.517
		c25.621-43.36,40.742-84.019,51.347-130.266c0.09,0.02,0.991,0.215,0.991,0.215l-0.991-0.215
		c19.252-85.997,11.093-182.521-31.553-274.396l0.919-0.428l0,0l-0.919,0.428c-42.958-92.652-106.831-155.972-189.566-200.614
		l0.468-0.9l0,0l-0.468,0.9c-0.741-0.42-8.983-4.564-19.756-9.597c-178.164-82.07-385.895-30.469-498.154,92.657l-0.738-0.695l0,0
		l0.738,0.695c-40.863,44.784-68.873,90.749-86.913,136.311c-13.271,32.468-25.239,74.983-29.589,114.569l-1.007-0.119
		c0,0,0.479,0.057,1.007,0.119c-5.305,48.08-3.743,92.06,6.254,139.826l-0.992,0.209c0,0,0.902-0.19,0.992-0.209
		c9.077,42.964,24.27,84.146,47.561,125.292c1.634,2.887,2.509,4.465,3.003,5.242l-0.874,0.514l0,0l0.874-0.514
		c50.149,83.036,118.177,142.923,208.738,181.006l-0.386,0.938l0,0l0.386-0.938c21.094,8.87,42.901,15.463,64.122,20.918
		c0.515,0.133,6.799,1.652,7.194,2.005c0,16.497,0,123.151,0,138.928c-6.17,0-311.94,0-316.799,0c0,9.994,0,176.907,0,186.912
		c5.059,0,310.786,0,316.801,0c0,5.743,0,297.48,0,302.29c9.994,0,176.907,0,186.912,0c0-4.811,0-296.547,0-302.29
		c6.198,0,311.209,0,315.994,0c0-9.994,0-176.907,0-186.912c-4.788,0-309.798,0-315.994,0c0-17.322,0-122.696,0-139.025
		c5.726-3.646,2.636-2.501,13.912-4.307c13.59-2.754,18.436-2.943,52.224-15.448c3.494-1.413,5.49-2.22,5.49-2.22l0.38,0.94l0,0
		l-0.38-0.94c45.686-18.455,82.448-42.054,119.187-73.244l0.666,0.765l0,0l-0.666-0.765
		C833.349,828.859,859.37,804.278,887.581,760.451z M247.321,842.576l0.454-0.524L247.321,842.576L247.321,842.576z
		 M798.521,843.607l-0.666-0.765c-34.632,29.398-70.181,52.638-115.238,70.825c-39.897,16.153-51.943,16.576-77.384,18.515
		c-0.154-0.022-0.119,0.111-0.178,0.167c-0.628,1.228,0.057-0.112-2.827,5.53c0,18.043,0,143.28,0,163.775
		c1.856,0,310.38,0,315.995,0c0,7.297,0,151.598,0,158.906c-15.232,0-300.524,0-315.993,0c0,11.333,0,290.858,0,302.291
		c-7.308,0-151.604,0-158.905,0c0-25.909,0-292.885,0-302.292c-1.794,0-311.164,0-316.801,0c0-7.308,0-151.605,0-158.905
		c15.286,0,301.37,0,316.802,0c0-20.491,0-145.441,0-163.498c-0.091-0.166-0.201-0.367-0.281-0.514
		c-16.917-4.53-47.576-11.232-79.705-24.792l-0.386,0.938l0,0l0.386-0.938c-83.735-35.21-151.32-91.231-201.999-175.159
		l-0.874,0.514l0,0l0.874-0.514c-0.582-0.914-4.913-8.465-10.295-18.6c-17.207-32.85-30.442-68.99-38.639-107.718l-0.992,0.209
		c0,0,0.902-0.19,0.992-0.209c-9.763-46.579-11.111-89.389-6.052-135.292l-1.007-0.119c0,0,0.479,0.057,1.007,0.119
		c4.481-40.791,16.988-86.794,37.167-130.515l-0.921-0.425l0,0l0.921,0.425c19.928-43.248,44.442-78.28,75.616-112.417l-0.738-0.695
		l0,0l0.738,0.695c25.277-27.834,63.036-57.638,107.91-81.33l-0.466-0.901l0,0l0.466,0.901
		c40.692-21.518,84.617-34.543,128.837-41.829l-0.155-1.002l0,0l0.155,1.002c45.484-7.537,90.689-6.167,135.747,0.462l0.161-1.001
		l0,0l-0.161,1.001c1,0.115,33.286,5.216,66.124,16.074c29.977,9.805,58.602,24.089,62.631,26.383l0.468-0.899l0,0l-0.468,0.899
		c81.939,44.279,142.724,106.489,183.337,194.101l0.919-0.428l0,0l-0.919,0.428c21.813,47.002,31.611,87.206,37.266,130.352
		c0.528-0.061,1.007-0.117,1.007-0.117l-1.007,0.117c0.072,0.473,1.213,12.002,1.261,12.48c3.479,49.36,0.206,81.753-7.626,121.19
		c-0.219,0.972-0.335,1.49-0.335,1.49c0.09,0.02,0.991,0.215,0.991,0.215l-0.991-0.215c-10.202,44.505-24.839,84.03-49.708,126.1
		l0.872,0.517l0,0l-0.872-0.517c-25.185,42.402-58.138,80.103-86.731,104.213L798.521,843.607L798.521,843.607z"/>
	<path fill="#019A4A" d="M899.34,768.055c24.439-38.865,43.456-77.787,56.942-127.546c0.238-0.918,5.379-21.086,5.379-22.031
		c0.09,0.02,0.991,0.215,0.991,0.215l-0.991-0.215c25.364-113.091,4.576-239.29-71.726-352.117
		c-13.08-19.342-31.64-41.249-41.274-51.174l0.738-0.695l0,0l-0.738,0.695c-36.337-37.464-67.065-61.063-115.339-87.111l0.468-0.9
		l0,0l-0.468,0.9c-29.563-16.756-84.928-36.222-124.047-42.931c-0.219-0.039-12.961-2.333-13.184-2.333l0.161-1.001l0,0
		l-0.161,1.001c-54.527-8.026-103.308-7.257-144.479-0.493l-0.155-1.002l0,0l0.155,1.002
		c-40.234,6.601-80.357,17.724-117.028,34.736c-3.175,1.434-19.77,9.263-20.409,9.897l-0.466-0.901l0,0l0.466,0.901
		c-79.607,41.965-134.386,97.171-179.449,174.399c0.47-0.623,0.894-1.183,0.377-0.495c0.055-0.055,0.3-0.3,0.356-0.356
		c-0.469,0.621,1.097-1.437-1.044,1.385c0.057-0.099,0.252-0.432,0.311-0.534c-0.409,0.542-0.853,1.133-0.745,0.993
		C106.33,354.145,85.406,410.438,78.54,472.785l-1.007-0.119c0,0,0.479,0.057,1.007,0.119c-5.502,49.806-3.822,95.174,6.459,144.362
		l-0.992,0.209c0,0,0.902-0.19,0.992-0.209c20.157,95.368,70.117,180.809,144.636,245.821l-0.664,0.766l0,0l0.664-0.766
		c37.394,32.664,78.236,56.935,123.036,75.777l-0.386,0.938l0,0l0.386-0.938c21.421,9.037,41.54,15.115,62.646,20.543
		c0,14.187,0,101.383,0,114.357c-9.203,0-311.506,0-316.8,0c0,10.871,0,204.031,0,214.92c5.733,0,308.199,0,316.801,0
		c0,3.411,0,294.655,0,302.293c10.88,0,204.023,0,214.92,0c0-7.638,0-298.879,0-302.29c9.15,0,310.701,0,315.994,0
		c0-10.871,0-204.031,0-214.92c-5.519,0-307.27,0-315.994,0c0-14.169,0-100.282,0-114.274c21.51-5.093,38.821-10.027,62.868-19.739
		l0.38,0.94l0,0l-0.38-0.94c44.707-18.083,81.25-40.773,118.382-71.628c3.025-2.569,4.754-4.037,4.754-4.038l0.666,0.765l0,0
		l-0.666-0.765C815.242,864.881,862.156,825.803,899.34,768.055z M807.713,854.172l-0.666-0.765
		c-36.689,31.147-73.347,54.705-119.187,73.244l0.38,0.94l0,0l-0.38-0.94c-35.205,14.227-52.119,16.534-57.714,17.668
		c-11.298,1.814-8.203,0.672-13.912,4.307c0,16.525,0,123.415,0,139.025c6.198,0,311.209,0,315.994,0c0,9.994,0,176.907,0,186.912
		c-4.788,0-309.798,0-315.994,0c0,5.744,0,297.481,0,302.291c-9.994,0-176.907,0-186.912,0c0-4.811,0-296.548,0-302.291
		c-6.17,0-311.942,0-316.801,0c0-9.994,0-176.907,0-186.912c5.059,0,310.786,0,316.801,0c0-17.328,0-122.671,0-138.928
		c-0.381-0.341-6.662-1.868-7.194-2.005c-21.348-5.488-43.123-12.088-64.122-20.918l-0.386,0.938l0,0l0.386-0.938
		c-88.311-37.137-157.322-95.871-208.738-181.006l-0.874,0.514l0,0l0.874-0.514c-11.476-18.051-37.541-68.891-50.564-130.534
		l-0.992,0.209c0,0,0.902-0.19,0.992-0.209c-10.051-48.022-11.53-92.033-6.254-139.826l-1.007-0.119c0,0,0.479,0.057,1.007,0.119
		c4.327-39.378,16.153-81.698,29.589-114.569c17.875-45.121,45.633-91.099,86.913-136.311l-0.738-0.695l0,0l0.738,0.695
		c22.347-24.268,55.928-52.121,92.433-73.579c65.733-37.319,124.667-53.452,196.622-58.439
		c71.859-2.774,141.201,8.089,209.099,39.361c10.838,5.065,19.018,9.178,19.756,9.597l0.468-0.9l0,0l-0.468,0.9
		c84.911,45.817,147.504,109.991,189.566,200.614l0.919-0.428l0,0l-0.919,0.428c42.397,91.338,50.994,188.298,31.553,274.396
		c0.09,0.02,0.991,0.215,0.991,0.215l-0.991-0.215c-10.588,46.164-25.694,86.855-51.347,130.266l0.872,0.517l0,0l-0.872-0.517
		c-25.252,42.476-57.307,80.019-89.584,107.636L807.713,854.172L807.713,854.172z"/>
	<path fill="#FDE000" d="M835.723,865.321c34.421-32.706,60.313-63.75,85-105.268l0.872,0.517l0,0l-0.872-0.517
		c76.712-129.922,87.8-286.938,21.089-430.762l0.919-0.428l0,0l-0.919,0.428c-23.242-50.058-53.786-93.384-82.956-123.708
		l0.738-0.695l0,0l-0.738,0.695c-34.164-35.233-68.139-62.409-113.404-86.875c-52.04-28.063-112.667-45.623-147.131-49.723
		l0.161-1.001l0,0l-0.161,1.001c-55.899-8.252-105.887-7.518-148.845-0.508l-0.155-1.002l0,0l0.155,1.002
		c-142.551,23.367-253.687,99.992-327.015,226.116c1.626-2.161,5.011-6.655,2.741-3.637c0.055-0.055,0.3-0.3,0.356-0.356
		c-1.503,1.986,3.409-4.492-3.361,4.445c0.065-0.114,0.189-0.326,0.263-0.452c-0.575,0.765-0.932,1.24-0.737,0.983
		c-4.876,9.103-16.067,29.62-25.644,53.771c-14.193,34.727-26.816,79.767-31.445,121.792l-1.007-0.119c0,0,0.479,0.057,1.007,0.119
		c-5.525,49.985-4.215,96.797,6.66,148.897l-0.992,0.209c0,0,0.902-0.19,0.992-0.209c9.512,44.968,25.415,88.827,50.633,133.383
		c1.7,2.999,2.666,4.737,3.199,5.579l-0.874,0.514l0,0l0.874-0.514c26.466,43.861,54.818,79.205,95.336,114.553l-0.272,0.314
		l0.272-0.314c38.71,33.705,80.183,58.486,126.876,78.147l-0.386,0.938l0,0l0.386-0.938c20.184,8.486,37.678,13.97,53.976,18.161
		c0,33.516,0,56.982,0,89.786c-15.348,0-301.355,0-316.8,0c0,9.374,0,233.554,0,242.928c15.451,0,301.453,0,316.801,0
		c0,15.12,0,292.959,0,302.289c9.374,0,233.554,0,242.928,0c0-10.021,0-289.332,0-302.291c15.317,0,300.577,0,315.995,0
		c0-9.374,0-233.554,0-242.928c-15.419,0-300.68,0-315.997,0c0-10.96,0-81.264,0-89.524c15.913-3.767,31.712-8.455,54.107-17.499
		l0.38,0.94l0,0l-0.38-0.94c48.939-19.797,88.113-44.973,127.084-78.086l0.666,0.765l0,0l-0.666-0.765
		C825.471,874.568,835.685,865.356,835.723,865.321z M816.906,864.736l-0.666-0.765c-37.786,32.082-75.753,56.524-123.136,75.666
		l0.38,0.94l0,0l-0.38-0.94c-23.669,9.564-41.26,14.628-62.868,19.739c0,14.177,0,101.374,0,114.274c9.15,0,310.7,0,315.994,0
		c0,10.871,0,204.031,0,214.92c-5.519,0-307.268,0-315.992,0c0,3.41,0,294.65,0,302.288c-10.883,0-204.023,0-214.92,0
		c0-7.638,0-298.88,0-302.291c-9.203,0-311.508,0-316.801,0c0-10.871,0-204.031,0-214.92c5.733,0,308.199,0,316.801,0
		c0-14.17,0-100.342,0-114.357c-21.74-5.591-41.573-11.67-62.646-20.543l-0.386,0.938l0,0l0.386-0.938
		c-46.097-19.41-85.892-43.493-123.036-75.777l-0.664,0.766l0,0l0.664-0.766C154.819,797.695,105.141,712.24,85,617.149
		l-0.992,0.209c0,0,0.902-0.19,0.992-0.209c-10.565-50.55-11.794-95.878-6.459-144.362l-1.007-0.119c0,0,0.479,0.057,1.007,0.119
		c4.883-44.419,19.599-95.684,36.943-133.297c9.329-20.233,10.228-21.652,18.498-37.144c-0.106,0.137,0.733-0.973,0.787-1.065
		c47.862-82.117,105.114-135.126,179.407-174.327l-0.466-0.901l0,0l0.466,0.901c42.44-22.403,88.875-36.666,137.437-44.633
		l-0.155-1.002l0,0l0.155,1.002c41.704-6.864,90.296-7.482,144.479,0.493l0.161-1.001l0,0l-0.161,1.001
		c36.959,4.399,102.476,25.566,137.231,45.264l0.468-0.9l0,0l-0.468,0.9c48.149,25.98,78.894,49.536,115.339,87.111l0.738-0.695l0,0
		l-0.738,0.695c5.873,6.052,25.621,28.029,41.274,51.174c76.838,113.619,96.616,240.931,71.726,352.117
		c0.09,0.02,0.991,0.215,0.991,0.215l-0.991-0.215c-22.211,97.055-67.175,171.701-135.442,236.558
		c-7.081,6.368-8.978,8.083-9.978,8.935L816.906,864.736L816.906,864.736z"/>
	<path fill="#FF5A00" d="M922.858,783.265c44.684-71.009,72.151-148.311,76.29-235.27c1.829-35.245-1.601-70.891-2.516-77.098
		c0.528-0.061,1.007-0.117,1.007-0.117l-1.007,0.117c-6.567-50.535-18.129-95.766-42.123-147.512l0.919-0.428l0,0l-0.919,0.428
		c-46.555-100.156-115.854-170.339-208.254-220.15l0.468-0.899l0,0l-0.468,0.899c0,0-0.526-0.296-1.541-0.793
		c-99.735-49.819-201.938-63.466-303.903-46.726c-110.958,19.59-200.022,70.775-266.923,143.937
		c-26.612,29.171-43.964,54.366-63.693,88.187c2.428-3.228,9.192-12.212,5.108-6.782c0.055-0.055,0.3-0.3,0.356-0.356
		c-2.536,3.351,5.722-7.547-5.677,7.505c0-0.001,0.213-0.365,0.213-0.366c-0.651,0.865-0.993,1.322-0.728,0.97
		C79.285,345.235,57.92,404.258,50.732,469.493l-1.007-0.119c0,0,0.479,0.057,1.007,0.119c-5.805,52.46-4.143,100.739,6.864,153.43
		l-0.992,0.209c0,0,0.902-0.19,0.992-0.209c31.448,148.309,130.685,277.085,284.413,341.724l-0.386,0.938l0,0l0.386-0.938
		c8.441,3.553,29.477,11.7,45.305,15.78c0,7.395,0,57.868,0,65.215c-9.293,0-310.222,0-316.804,0c0,11.984,0,258.965,0,270.935
		c6.576,0,307.516,0,316.801,0c0,16.31,0,285.215,0,302.288c11.984,0,258.965,0,270.935,0c0-17.075,0-285.983,0-302.29
		c7.898,0,311.528,0,315.994,0c0-11.984,0-258.965,0-270.935c-6.567,0-307.277,0-315.995,0c0-7.375,0-57.49,0-64.773
		c13.965-3.303,31.986-9.868,45.347-15.261l0.38,0.94l0,0l-0.38-0.94c50.436-20.412,90.887-46.375,131.031-80.506l0.666,0.765l0,0
		l-0.666-0.765C835.623,884.506,884.381,842.989,922.858,783.265z M826.098,875.3l-0.666-0.765
		c-38.986,33.126-78.169,58.3-127.084,78.086l0.38,0.94l0,0l-0.38-0.94c-22.701,9.168-38.526,13.811-54.107,17.499
		c0,33.278,0,57.131,0,89.524c15.317,0,300.577,0,315.995,0c0,9.374,0,233.554,0,242.928c-15.419,0-300.678,0-315.995,0
		c0,15.12,0,292.961,0,302.29c-9.372,0-233.553,0-242.927,0c0-10.021,0-289.333,0-302.292c-15.348,0-301.355,0-316.8,0
		c0-9.374,0-233.554,0-242.928c15.451,0,301.453,0,316.801,0c0-10.06,0-81.315,0-89.786c-18.955-4.874-37.506-11.237-53.976-18.161
		l-0.386,0.938l0,0l0.386-0.938c-47.13-19.824-88.859-44.971-126.876-78.147l-0.272,0.314l0.272-0.314
		c-40.705-35.511-68.977-70.884-95.336-114.553l-0.874,0.514l0,0l0.874-0.514c-11.331-17.884-39.754-72.549-53.832-138.962
		l-0.992,0.209c0,0,0.902-0.19,0.992-0.209c-10.951-52.353-12.134-99.372-6.66-148.897l-1.007-0.119c0,0,0.479,0.057,1.007,0.119
		c6.771-61.463,27.154-119.682,57.089-175.563c-0.759,1,19.021-32.088,28.185-44.166C224.801,149.529,324.148,89.081,449.476,68.474
		l-0.155-1.002l0,0l0.155,1.002c51.613-8.423,100.215-6.671,148.845,0.508l0.161-1.001l0,0l-0.161,1.001
		c35.715,4.249,107.675,23.943,171.622,63.915c38.069,23.928,62.341,45.298,88.913,72.683l0.738-0.695l0,0l-0.738,0.695
		c28.664,29.509,59.861,73.967,82.956,123.708l0.919-0.428l0,0l-0.919,0.428c66.806,144.096,55.464,301.223-21.089,430.762
		l0.872,0.517l0,0l-0.872-0.517c-27.197,45.761-62.319,86.568-95.29,114.482L826.098,875.3L826.098,875.3z"/>
	<path fill="#D10E1C" d="M509.25,34.036c-126.486,4.906-227.868,46.982-315.358,124.479
		c-37.105,33.339-63.713,68.351-87.933,106.807c-11.403,19.449-9.635,16.227-9.635,16.227
		C-64.08,580.407,97.092,903.706,372.297,991.761c0,14.266,0,8.896,0,38.866c-7.639,0-312.094,0-316.805,0
		c0,5.174,0,295.62,0,300.97c4.739,0,309.283,0,316.801,0c0,13.632,0,289.501,0,302.286c5.174,0,295.62,0,300.97,0
		c0-13.001,0-288.834,0-302.29c7.634,0,311.3,0,315.994,0c0-5.174,0-295.62,0-300.97c-13.932,0-301.928,0-315.994,0
		c0-7.774,0-30.409,0-38.23c71.815-23.45,125.294-54.576,182.155-105.755C1189.491,569.446,961.79,24.101,509.25,34.036z
		 M835.291,885.864l-0.666-0.765c-40.052,34.034-80.414,60.02-131.031,80.506l0.38,0.94l0,0l-0.38-0.94
		c-13.276,5.359-31.351,11.951-45.347,15.261c0,7.284,0,57.397,0,64.773c7.898,0,311.527,0,315.993,0c0,12.624,0,258.327,0,270.936
		c-6.567,0-307.277,0-315.995,0c0,16.31,0,285.217,0,302.29c-12.613,0-258.311,0-270.934,0c0-17.076,0-285.984,0-302.291
		c-9.293,0-310.219,0-316.801,0c0-11.984,0-258.965,0-270.935c6.576,0,307.516,0,316.801,0c0-7.347,0-57.818,0-65.215
		c-13.793-3.544-32.865-10.577-45.305-15.78l-0.386,0.938l0,0l0.386-0.938C187.68,899.757,88.837,770.268,57.593,622.92
		l-0.992,0.209c0,0,0.902-0.19,0.992-0.209c-10.933-52.316-12.709-100.606-6.864-153.43l-1.007-0.119c0,0,0.479,0.057,1.007,0.119
		c7.566-67.643,29.768-126.529,58.735-180.682c0,0-0.953,1.911,5.852-9.763C242.745,61.632,517.576-10.708,740.328,100.253
		c4.603,2.297,5.35,2.657,5.924,2.98l0.468-0.899l0,0l-0.468,0.899c93.563,50.437,162.303,121.197,208.254,220.15l0.919-0.428l0,0
		l-0.919,0.428c24.17,52.125,35.616,97.441,42.123,147.512c0.528-0.061,1.007-0.117,1.007-0.117l-1.007,0.117
		c0.147,1,1.215,11.063,2.135,24.035c9.189,139.43-46.258,277.72-146.39,373.884c-6.661,6.325-14.61,13.607-17.752,16.284
		L835.291,885.864L835.291,885.864z"/>
	<path fill="#FDE000" d="M134.417,301.886c2.141-2.822,0.575-0.764,1.044-1.385c-0.056,0.056-0.303,0.303-0.356,0.356
		C135.752,299.996,134.901,301.044,134.417,301.886z"/>
	<path fill="#FF5A00" d="M122.199,295.043c6.77-8.937,1.858-2.459,3.361-4.445c-0.056,0.056-0.303,0.303-0.356,0.356
		C127.807,287.493,122.331,294.813,122.199,295.043z"/>
	<path fill="#D10E1C" d="M109.98,288.2c11.4-15.053,3.141-4.154,5.677-7.505c-0.056,0.056-0.303,0.303-0.356,0.356
		C119.794,275.078,110.323,287.609,109.98,288.2z"/>
	<polygon fill="#4914A0" points="247.321,842.576 247.321,842.576 247.775,842.052 	"/>
	<path fill="#9913E6" d="M396.787,910.316c22.979,7.377,40.75,11.218,60.402,16.507c0.201,1.1,0.141-8.938,0.141,188.835
		c-5.858,0-309.248,0-316.802,0c0,6.655,0,124.218,0,130.898c7.554,0,310.944,0,316.802,0c0,2.903,0,299.302,0,302.291
		c6.655,0,124.218,0,130.898,0c0-3.039,0-299.384,0-302.291c5.97,0,308.499,0,315.994,0c0-6.655,0-124.218,0-130.898
		c-7.496,0-310.026,0-315.995,0c0-168.1-0.506-196.227,1.466-197.13c40.236-1.084,44.383-2.562,64.433-9.314
		c95.451-32.003,170.507-97.052,218.412-177.726l0.872,0.517l0,0l-0.872-0.517c40.001-67.635,61.859-148.427,56.355-232.069
		c-0.718-10.154-1.67-19.523-1.81-20.431c0.528-0.061,1.007-0.117,1.007-0.117l-1.007,0.117
		c-5.575-42.651-15.433-81.695-36.052-126.06l0.919-0.428l0,0l-0.919,0.428c-20.575-44.392-48.423-83.875-72.95-108.94l0.738-0.695
		l0,0l-0.738,0.695c-57.855-59.517-126.853-98.823-208.427-115.885c-10.32-2.096-19.246-3.706-20.246-3.819l0.161-1.001l0,0
		l-0.161,1.001c-43.459-6.373-88.04-7.616-131.384-0.449l-0.155-1.002l0,0l0.155,1.002
		C316.006,147.178,210.655,233.236,156.24,351.44l-0.921-0.425l0,0l0.921,0.425c-36.996,80.135-48.649,168.788-30.127,257.05
		l-0.992,0.209c0,0,0.902-0.19,0.992-0.209c17.584,83.356,61.433,162.11,131.052,222.74l-0.664,0.766l0,0l0.664-0.766
		c33.58,29.33,70.413,51.383,111.51,68.672l-0.386,0.938l0,0l0.386-0.938C367.892,900.158,391.663,908.676,396.787,910.316z
		 M341.178,176.036c92.86-50.071,246.412-68.481,383.569,11.354c72.116,42.256,121.337,102.06,155.901,176.438
		c14.826,30.268,29.63,83.849,32.679,118.196c18.74,190.069-96.616,357.902-263.6,413.902c-23.531,7.939-26.328,8.949-75.491,8.949
		c-0.021,0.011-0.014,224.769-0.014,224.793c13.932,0,301.928,0,315.994,0c0,22.494,0,80.388,0,102.89c-7.634,0-311.299,0-315.993,0
		c0,13.001,0,288.829,0,302.285c-22.494,0-80.388,0-102.89,0c0-13.632,0-289.507,0-302.291c-4.739,0-309.283,0-316.801,0
		c0-22.494,0-80.388,0-102.89c7.648,0,312.102,0,316.801,0c0-4.72,0-204.369,0-213.657c-8.696-2.944-58.476-12.734-97.329-29.05
		C60.398,754.788,53.358,328.204,341.178,176.036z"/>
</g>
</svg>
