<?xml version="1.0" encoding="utf-8"?>

<!DOCTYPE svg PUBLIC "-//W3C//DTD SVG 1.1//EN" "http://www.w3.org/Graphics/SVG/1.1/DTD/svg11.dtd">
<svg version="1.1" id="Layer_1" xmlns="http://www.w3.org/2000/svg" xmlns:xlink="http://www.w3.org/1999/xlink" x="0px" y="0px"
	 viewBox="0 0 1691.807 1691.807" enable-background="new 0 0 1691.807 1691.807" xml:space="preserve">
<g>
	<g>
		<path id="y" d="M845.904,45.904c220.8,0,400,179.2,400,400s-179.2,400-400,400s-400,179.2-400,400s179.2,400,400,400
			c441.6,0,800-358.4,800-800S1287.504,45.904,845.904,45.904z M845.904,1120.904c69,0,125,56,125,125s-56,125-125,125
			s-125-56-125-125S776.904,1120.904,845.904,1120.904z"/>
		<path id="d" d="M970.904,445.904c0,69.036-55.964,125-125,125s-125-55.964-125-125s55.964-125,125-125
			S970.904,376.868,970.904,445.904z"/>
		<path id="y_1_" fill="#FFFFFF" d="M845.904,1645.904c-220.8,0-400-179.2-400-400s179.2-400,400-400s400-179.2,400-400
			s-179.2-400-400-400c-441.6,0-800,358.4-800,800S404.304,1645.904,845.904,1645.904z M845.904,570.904c-69,0-125-56-125-125
			s56-125,125-125s125,56,125,125S914.904,570.904,845.904,570.904z"/>
		<path id="d_1_" fill="#FFFFFF" d="M720.904,1245.904c0,69.036,55.964,125,125,125s125-55.964,125-125s-55.964-125-125-125
			S720.904,1176.868,720.904,1245.904z"/>
		<g>
			<path fill="#FFFFFF" d="M1069.691,941.984c-21.964,48.374-56.688,100.681-83.357,131.747
				c-11.685,13.596-15.357,36.829-5.055,56.312c70.932,133.916,71.042,150.139,108.021,150.545
				c25.866,0.286,189.108-48.756,361.922-191.109c33.319-27.813,17.934-67.61-8.362-67.66c-17.723-0.08-28.063,12.542-58.714,38.114
				c-91.753,75.834-207.808,135.729-191.691,119.066c15.023-15.377,34.267-38.472,47.837-55.09
				c50.96-65.645,30.776-27.392,131.062-110.931c50.005-40.682,114.911-105.783,160.573-163.592
				c16.174-20.205,10.098-39.834-3.102-45.379c-68.145-28.682-61.328-21.365-55.862-41.881
				c21.433-80.151,32.406-148.674,37.952-216.593c1.284-16.9-9.221-31.393-23.787-33.703
				c-96.961-13.394-30.982-3.19-152.714,203.641c-4.219,7.17-6.902,3.804-63.603-20.061c-10.851-4.559-22.469-0.658-27.922,7.287
				c-4.804,6.882-2.211,6.949-8.461,50.654c-12.285,83.292-34.039,155.773-57.474,209.308
				c-10.788,25.249-12.674,31.705-60.711,62.75c-80.538,51.323-6.019,14.196,52.496-167.88c5.471-33.719-34.04-47.866-51.296-35.138
				C1102.778,832.778,1111.938,849.384,1069.691,941.984z"/>
		</g>
		<g>
			<path d="M542.772,847.555c-8.425-11.403-5.591-23.331-2.658-33.044c17.009-58.218,41.844-110.231,72.526-155.916
				c1.852-2.764-1.602-6.096-4.312-4.083c-79.723,59.067-93.816,89.736-115.52,130.303
				c-60.019,111.851-81.689,262.14-62.362,380.127c1.769,10.833-4.321,22.468-22.381,24.583c-3.199,1.3-40.919,5.159-51.318,4.566
				c-3.826-0.211-7.898-1.623-11.294-4.059c-9.445-6.722-10.006-16.759-10.724-21.839
				c-19.445-149.963,10.204-309.894,87.139-445.818c-77.01,84.675-130.824,184.4-163.498,293.688
				c-41.597,137.847-18.24,169.545-47.098,189.883c-4.869,3.182-4.809,2.924-7.221,3.354c-1.749,0.281-41.457,4.103-46.246,4.255
				c-6.025-1.425-13.348-7.73-17.656-14.412c-11.182-17.078-8.005-33.82-4.686-60.121
				c22.841-185.618,110.297-381.044,257.804-518.705c4.172-3.884,47.662-56.86,104.212-103.935c3.272-2.718,0.968-6.97-2.864-5.228
				c-124.644,56.571-209.182,139.477-214.911,143.204c-31.559,20.706-45.803-0.61-45.056-18.627
				c1.52-28.627,26.806-47.223,61.825-75.996c83-67.638,184.633-123.336,310.51-161.343c15.081-4.472,33.05-4.859,47.555,0.69
				c27.758,10.366,26.421,18.452,87.212,145.177c8.946,18.687,7.859,40.633-1.286,58.636
				c-12.11,23.904-93.144,84.301-140.447,218.082c-6.601,17.777-6.228,24.858-12.374,31.387
				C574.199,866.841,551.342,859.174,542.772,847.555z"/>
		</g>
	</g>
	<circle fill="none" stroke="#000000" stroke-width="3" stroke-miterlimit="10" cx="845.904" cy="845.904" r="800"/>
</g>
</svg>
